<mxfile host="app.diagrams.net" modified="2023-04-24T15:07:30.252Z" agent="Mozilla/5.0 (Windows NT 10.0; Win64; x64) AppleWebKit/537.36 (KHTML, like Gecko) Chrome/112.0.0.0 Safari/537.36 Edg/112.0.1722.58" etag="f31mFvKdxIUb90awNFZ1" version="21.2.1" type="github">
  <diagram name="第 1 页" id="BhoPhF-asN88aoCkbRC7">
    <mxGraphModel dx="1290" dy="581" grid="1" gridSize="10" guides="1" tooltips="1" connect="1" arrows="1" fold="1" page="1" pageScale="1" pageWidth="827" pageHeight="1169" math="0" shadow="0">
      <root>
        <mxCell id="0" />
        <mxCell id="1" parent="0" />
        <mxCell id="jUqosavkgMrZbO3vuFmJ-1" value="&lt;font style=&quot;font-size: 14px;&quot;&gt;浏览器&lt;/font&gt;" style="rounded=0;whiteSpace=wrap;html=1;" vertex="1" parent="1">
          <mxGeometry x="269" y="90" width="290" height="40" as="geometry" />
        </mxCell>
        <mxCell id="jUqosavkgMrZbO3vuFmJ-3" value="&lt;font style=&quot;font-size: 14px;&quot;&gt;Vue前端项目&lt;/font&gt;" style="rounded=0;whiteSpace=wrap;html=1;" vertex="1" parent="1">
          <mxGeometry x="269" y="140" width="290" height="40" as="geometry" />
        </mxCell>
        <mxCell id="jUqosavkgMrZbO3vuFmJ-5" value="" style="rounded=0;whiteSpace=wrap;html=1;" vertex="1" parent="1">
          <mxGeometry x="160" y="250" width="530" height="360" as="geometry" />
        </mxCell>
        <mxCell id="jUqosavkgMrZbO3vuFmJ-6" value="&lt;font style=&quot;font-size: 14px;&quot;&gt;Spring Boot前端项目&lt;/font&gt;" style="rounded=0;whiteSpace=wrap;html=1;" vertex="1" parent="1">
          <mxGeometry x="269" y="270" width="290" height="40" as="geometry" />
        </mxCell>
        <mxCell id="jUqosavkgMrZbO3vuFmJ-8" value="" style="rounded=0;whiteSpace=wrap;html=1;" vertex="1" parent="1">
          <mxGeometry x="190" y="340" width="170" height="230" as="geometry" />
        </mxCell>
        <mxCell id="jUqosavkgMrZbO3vuFmJ-9" value="教&lt;br&gt;程&lt;br&gt;阅&lt;br&gt;读" style="rounded=0;whiteSpace=wrap;html=1;" vertex="1" parent="1">
          <mxGeometry x="210" y="390" width="50" height="160" as="geometry" />
        </mxCell>
        <mxCell id="jUqosavkgMrZbO3vuFmJ-10" value="" style="rounded=0;whiteSpace=wrap;html=1;" vertex="1" parent="1">
          <mxGeometry x="400" y="340" width="280" height="230" as="geometry" />
        </mxCell>
        <mxCell id="jUqosavkgMrZbO3vuFmJ-12" value="用&lt;br&gt;户&lt;br&gt;中&lt;br&gt;心" style="rounded=0;whiteSpace=wrap;html=1;" vertex="1" parent="1">
          <mxGeometry x="290" y="390" width="50" height="160" as="geometry" />
        </mxCell>
        <mxCell id="jUqosavkgMrZbO3vuFmJ-13" value="用&lt;br&gt;户&lt;br&gt;管&lt;br&gt;理" style="rounded=0;whiteSpace=wrap;html=1;" vertex="1" parent="1">
          <mxGeometry x="420" y="390" width="50" height="160" as="geometry" />
        </mxCell>
        <mxCell id="jUqosavkgMrZbO3vuFmJ-14" value="分&lt;br&gt;类&lt;br&gt;管&lt;br&gt;理" style="rounded=0;whiteSpace=wrap;html=1;" vertex="1" parent="1">
          <mxGeometry x="509" y="390" width="50" height="160" as="geometry" />
        </mxCell>
        <mxCell id="jUqosavkgMrZbO3vuFmJ-15" value="电&lt;br&gt;子&lt;br&gt;书&lt;br&gt;管&lt;br&gt;理" style="rounded=0;whiteSpace=wrap;html=1;" vertex="1" parent="1">
          <mxGeometry x="600" y="390" width="50" height="160" as="geometry" />
        </mxCell>
        <mxCell id="jUqosavkgMrZbO3vuFmJ-16" value="&lt;font style=&quot;font-size: 14px;&quot;&gt;在线阅读网站&lt;/font&gt;" style="text;html=1;strokeColor=none;fillColor=none;align=center;verticalAlign=middle;whiteSpace=wrap;rounded=0;" vertex="1" parent="1">
          <mxGeometry x="240" y="350" width="90" height="30" as="geometry" />
        </mxCell>
        <mxCell id="jUqosavkgMrZbO3vuFmJ-18" value="后台管理系统" style="text;html=1;strokeColor=none;fillColor=none;align=center;verticalAlign=middle;whiteSpace=wrap;rounded=0;" vertex="1" parent="1">
          <mxGeometry x="484.5" y="350" width="111" height="30" as="geometry" />
        </mxCell>
        <mxCell id="jUqosavkgMrZbO3vuFmJ-19" value="权&lt;br&gt;限&lt;br&gt;控&lt;br&gt;制" style="rounded=0;whiteSpace=wrap;html=1;" vertex="1" parent="1">
          <mxGeometry x="70" y="390" width="50" height="160" as="geometry" />
        </mxCell>
        <mxCell id="jUqosavkgMrZbO3vuFmJ-20" value="日&lt;br&gt;志&lt;br&gt;记&lt;br&gt;录" style="rounded=0;whiteSpace=wrap;html=1;" vertex="1" parent="1">
          <mxGeometry x="730" y="380" width="50" height="160" as="geometry" />
        </mxCell>
        <mxCell id="jUqosavkgMrZbO3vuFmJ-21" value="" style="shape=cylinder3;whiteSpace=wrap;html=1;boundedLbl=1;backgroundOutline=1;size=15;rotation=90;" vertex="1" parent="1">
          <mxGeometry x="275" y="620" width="60" height="80" as="geometry" />
        </mxCell>
        <mxCell id="jUqosavkgMrZbO3vuFmJ-22" value="" style="shape=cylinder3;whiteSpace=wrap;html=1;boundedLbl=1;backgroundOutline=1;size=15;rotation=90;" vertex="1" parent="1">
          <mxGeometry x="504" y="620" width="60" height="80" as="geometry" />
        </mxCell>
        <mxCell id="jUqosavkgMrZbO3vuFmJ-24" value="&lt;font style=&quot;font-size: 14px;&quot;&gt;Nginx网关&lt;/font&gt;" style="rounded=0;whiteSpace=wrap;html=1;" vertex="1" parent="1">
          <mxGeometry x="269" y="200" width="290" height="40" as="geometry" />
        </mxCell>
        <mxCell id="jUqosavkgMrZbO3vuFmJ-25" value="MySQL" style="text;html=1;strokeColor=none;fillColor=none;align=center;verticalAlign=middle;whiteSpace=wrap;rounded=0;" vertex="1" parent="1">
          <mxGeometry x="264" y="645" width="60" height="30" as="geometry" />
        </mxCell>
        <mxCell id="jUqosavkgMrZbO3vuFmJ-26" value="Redis" style="text;html=1;strokeColor=none;fillColor=none;align=center;verticalAlign=middle;whiteSpace=wrap;rounded=0;" vertex="1" parent="1">
          <mxGeometry x="494" y="645" width="60" height="30" as="geometry" />
        </mxCell>
      </root>
    </mxGraphModel>
  </diagram>
</mxfile>
